{
  "source": "C:\\Users\\Peter\\Desktop\\stuff\\MIUN\\quantitative_research\\video_compression\\videos\\HEVC_CLASS_B\\ParkScene_1920x1080_24.y4m",
  "output": "C:\\Users\\Peter\\Desktop\\stuff\\MIUN\\quantitative_research\\video_compression\\compressed_videos\\HEVC_CLASS_B\\hevc\\2\\ParkScene_1920x1080_24_hevc.mp4",
  "codec": "hevc",
  "ok": "Input #0, yuv4mpegpipe, from 'C:\\Users\\Peter\\Desktop\\stuff\\MIUN\\quantitative_research\\video_compression\\videos\\HEVC_CLASS_B\\ParkScene_1920x1080_24.y4m':\n  Duration: 00:00:10.00, start: 0.000000, bitrate: 597198 kb/s\n  Stream #0:0: Video: rawvideo (I420 / 0x30323449), yuv420p(progressive), 1920x1080, 24 fps, 24 tbr, 24 tbn\n[out#0/mp4 @ 000001eaf86ea180] Codec AVOption b:a (set bitrate (in bits/s)) has not been used for any stream. The most likely reason is either wrong type (e.g. a video option with no video streams) or that it is a private option of some decoder which was not actually used for any stream.\nStream mapping:\n  Stream #0:0 -> #0:0 (rawvideo (native) -> hevc (libx265))\nPress [q] to stop, [?] for help\n[libx265 @ 000001eaf86ec900] Unknown option: \"aq-mode.\nx265 [info]: HEVC encoder version 4.1+190-8f11c33ac\nx265 [info]: build info [Windows][GCC 15.1.0][64 bit] 10bit\nx265 [info]: using cpu capabilities: MMX2 SSE2Fast LZCNT SSSE3 SSE4.2 AVX FMA3 BMI2 AVX2\nx265 [info]: Main 10 profile, Level-4 (Main tier)\nx265 [info]: Thread pool created using 12 threads\nx265 [info]: Slices                              : 1\nx265 [info]: frame threads / pool features       : 3 / wpp(17 rows)\nx265 [info]: Coding QT: max CU size, min CU size : 64 / 8\nx265 [info]: Residual QT: max TU size, max depth : 32 / 1 inter / 1 intra\nx265 [info]: ME / range / subpel / merge         : star / 57 / 3 / 3\nx265 [info]: Keyframe min / max / scenecut / bias  : 24 / 250 / 40 / 5.00 \nx265 [info]: Lookahead / bframes / badapt        : 25 / 4 / 2\nx265 [info]: b-pyramid / weightp / weightb       : 1 / 1 / 0\nx265 [info]: References / ref-limit  cu / depth  : 4 / on / on\nx265 [info]: AQ: mode / str / qg-size / cu-tree  : 2 / 1.0 / 32 / 1\nx265 [info]: Rate Control / qCompress            : ABR-2000 kbps / 0.60\nx265 [info]: VBV/HRD buffer / max-rate / init    : 2000 / 2000 / 0.750\nx265 [info]: tools: rect limit-modes rd=4 psy-rd=2.00 rdoq=2 psy-rdoq=1.00\nx265 [info]: tools: rskip mode=1 signhide tmvp strong-intra-smoothing lslices=4\nx265 [info]: tools: deblock sao dhdr10-info\nOutput #0, mp4, to 'C:\\Users\\Peter\\Desktop\\stuff\\MIUN\\quantitative_research\\video_compression\\compressed_videos\\HEVC_CLASS_B\\hevc\\2\\ParkScene_1920x1080_24_hevc.mp4':\n  Metadata:\n    encoder         : Lavf62.3.100\n  Stream #0:0: Video: hevc (hev1 / 0x31766568), yuv420p10le(tv, progressive), 1920x1080, q=2-31, 2000 kb/s, 24 fps, 12288 tbn\n    Metadata:\n      encoder         : Lavc62.11.100 libx265\n    Side data:\n      cpb: bitrate max/min/avg: 2000000/0/2000000 buffer size: 2000000 vbv_delay: N/A\nframe=    0 fps=0.0 q=0.0 size=       0KiB time=N/A bitrate=N/A speed=N/A elapsed=0:00:00.50    \nframe=    0 fps=0.0 q=0.0 size=       0KiB time=N/A bitrate=N/A speed=N/A elapsed=0:00:01.02    \nframe=    0 fps=0.0 q=0.0 size=       0KiB time=N/A bitrate=N/A speed=N/A elapsed=0:00:01.53    \nframe=    0 fps=0.0 q=0.0 size=       0KiB time=N/A bitrate=N/A speed=N/A elapsed=0:00:02.05    \nframe=    0 fps=0.0 q=0.0 size=       0KiB time=N/A bitrate=N/A speed=N/A elapsed=0:00:02.57    \nframe=    0 fps=0.0 q=0.0 size=       0KiB time=N/A bitrate=N/A speed=N/A elapsed=0:00:03.08    \nframe=    0 fps=0.0 q=0.0 size=       0KiB time=N/A bitrate=N/A speed=N/A elapsed=0:00:03.59    \nframe=    0 fps=0.0 q=0.0 size=       0KiB time=N/A bitrate=N/A speed=N/A elapsed=0:00:04.11    \nframe=    0 fps=0.0 q=0.0 size=       0KiB time=N/A bitrate=N/A speed=N/A elapsed=0:00:04.63    \nframe=    0 fps=0.0 q=0.0 size=       0KiB time=N/A bitrate=N/A speed=N/A elapsed=0:00:05.14    \nframe=    0 fps=0.0 q=0.0 size=       0KiB time=N/A bitrate=N/A speed=N/A elapsed=0:00:05.66    \nframe=    0 fps=0.0 q=0.0 size=       0KiB time=N/A bitrate=N/A speed=N/A elapsed=0:00:06.17    \nframe=    0 fps=0.0 q=0.0 size=       0KiB time=N/A bitrate=N/A speed=N/A elapsed=0:00:06.69    \nframe=    0 fps=0.0 q=0.0 size=       0KiB time=N/A bitrate=N/A speed=N/A elapsed=0:00:07.20    \nframe=    0 fps=0.0 q=0.0 size=       0KiB time=N/A bitrate=N/A speed=N/A elapsed=0:00:07.71    \nframe=    1 fps=0.1 q=32.8 size=       0KiB time=-00:00:00.04 bitrate=N/A speed=N/A elapsed=0:00:08.23    \nframe=    2 fps=0.2 q=39.2 size=       0KiB time=00:00:00.00 bitrate=N/A speed=   0x elapsed=0:00:08.75    \nframe=    3 fps=0.3 q=42.8 size=       0KiB time=00:00:00.04 bitrate=   8.4kbits/s speed=0.0045x elapsed=0:00:09.26    \nframe=    3 fps=0.3 q=42.8 size=       0KiB time=00:00:00.04 bitrate=   8.4kbits/s speed=0.00426x elapsed=0:00:09.78    \nframe=    3 fps=0.3 q=42.8 size=       0KiB time=00:00:00.04 bitrate=   8.4kbits/s speed=0.00404x elapsed=0:00:10.30    \nframe=    4 fps=0.4 q=45.7 size=       0KiB time=00:00:00.08 bitrate=   4.2kbits/s speed=0.0077x elapsed=0:00:10.82    \nframe=    5 fps=0.4 q=42.3 size=       0KiB time=00:00:00.12 bitrate=   2.8kbits/s speed=0.011x elapsed=0:00:11.33    \nframe=    5 fps=0.4 q=42.3 size=       0KiB time=00:00:00.12 bitrate=   2.8kbits/s speed=0.0106x elapsed=0:00:11.84    \nframe=    6 fps=0.5 q=36.0 size=       0KiB time=00:00:00.16 bitrate=   2.1kbits/s speed=0.0135x elapsed=0:00:12.36    \nframe=    7 fps=0.5 q=37.9 size=       0KiB time=00:00:00.20 bitrate=   1.7kbits/s speed=0.0162x elapsed=0:00:12.87    \nframe=    7 fps=0.5 q=37.9 size=       0KiB time=00:00:00.20 bitrate=   1.7kbits/s speed=0.0156x elapsed=0:00:13.39    \nframe=    8 fps=0.6 q=37.7 size=       0KiB time=00:00:00.25 bitrate=   1.4kbits/s speed=0.018x elapsed=0:00:13.91    \nframe=    8 fps=0.6 q=37.7 size=       0KiB time=00:00:00.25 bitrate=   1.4kbits/s speed=0.0173x elapsed=0:00:14.42    \nframe=    9 fps=0.6 q=38.2 size=       0KiB time=00:00:00.29 bitrate=   1.2kbits/s speed=0.0195x elapsed=0:00:14.93    \nframe=   10 fps=0.6 q=33.7 size=       0KiB time=00:00:00.33 bitrate=   1.1kbits/s speed=0.0216x elapsed=0:00:15.45    \nframe=   11 fps=0.7 q=37.1 size=       0KiB time=00:00:00.37 bitrate=   0.9kbits/s speed=0.0235x elapsed=0:00:15.97    \nframe=   11 fps=0.7 q=37.1 size=       0KiB time=00:00:00.37 bitrate=   0.9kbits/s speed=0.0227x elapsed=0:00:16.49    \nframe=   11 fps=0.6 q=37.1 size=       0KiB time=00:00:00.37 bitrate=   0.9kbits/s speed=0.0221x elapsed=0:00:17.00    \nframe=   12 fps=0.7 q=37.9 size=       0KiB time=00:00:00.41 bitrate=   0.8kbits/s speed=0.0238x elapsed=0:00:17.51    \nframe=   13 fps=0.7 q=39.2 size=       0KiB time=00:00:00.45 bitrate=   0.8kbits/s speed=0.0254x elapsed=0:00:18.03    \nframe=   14 fps=0.8 q=33.0 size=       0KiB time=00:00:00.50 bitrate=   0.7kbits/s speed=0.0269x elapsed=0:00:18.55    \nframe=   14 fps=0.7 q=33.0 size=       0KiB time=00:00:00.50 bitrate=   0.7kbits/s speed=0.0262x elapsed=0:00:19.08    \nframe=   15 fps=0.8 q=38.2 size=       0KiB time=00:00:00.54 bitrate=   0.6kbits/s speed=0.0276x elapsed=0:00:19.61    \nframe=   16 fps=0.8 q=39.1 size=       0KiB time=00:00:00.58 bitrate=   0.6kbits/s speed=0.029x elapsed=0:00:20.12    \nframe=   16 fps=0.8 q=39.1 size=       0KiB time=00:00:00.58 bitrate=   0.6kbits/s speed=0.0283x elapsed=0:00:20.64    \nframe=   16 fps=0.8 q=39.1 size=       0KiB time=00:00:00.58 bitrate=   0.6kbits/s speed=0.0276x elapsed=0:00:21.17    \nframe=   17 fps=0.8 q=39.4 size=       0KiB time=00:00:00.62 bitrate=   0.6kbits/s speed=0.0288x elapsed=0:00:21.67    \nframe=   18 fps=0.8 q=39.3 size=       0KiB time=00:00:00.66 bitrate=   0.5kbits/s speed=0.03x elapsed=0:00:22.19    \nframe=   18 fps=0.8 q=39.3 size=       0KiB time=00:00:00.66 bitrate=   0.5kbits/s speed=0.0293x elapsed=0:00:22.71    \nframe=   19 fps=0.8 q=32.2 size=       0KiB time=00:00:00.70 bitrate=   0.5kbits/s speed=0.0305x elapsed=0:00:23.22    \nframe=   20 fps=0.8 q=36.4 size=       0KiB time=00:00:00.75 bitrate=   0.5kbits/s speed=0.0316x elapsed=0:00:23.73    \nframe=   20 fps=0.8 q=36.4 size=       0KiB time=00:00:00.75 bitrate=   0.5kbits/s speed=0.0309x elapsed=0:00:24.25    \nframe=   20 fps=0.8 q=36.4 size=       0KiB time=00:00:00.75 bitrate=   0.5kbits/s speed=0.0303x elapsed=0:00:24.77    \nframe=   21 fps=0.8 q=38.8 size=       0KiB time=00:00:00.79 bitrate=   0.4kbits/s speed=0.0313x elapsed=0:00:25.29    \nframe=   21 fps=0.8 q=38.8 size=       0KiB time=00:00:00.79 bitrate=   0.4kbits/s speed=0.0307x elapsed=0:00:25.80    \nframe=   22 fps=0.8 q=39.0 size=       0KiB time=00:00:00.83 bitrate=   0.4kbits/s speed=0.0317x elapsed=0:00:26.32    \nframe=   22 fps=0.8 q=39.0 size=       0KiB time=00:00:00.83 bitrate=   0.4kbits/s speed=0.0311x elapsed=0:00:26.82    \nframe=   22 fps=0.8 q=39.0 size=       0KiB time=00:00:00.83 bitrate=   0.4kbits/s speed=0.0305x elapsed=0:00:27.34    \nframe=   23 fps=0.8 q=32.5 size=       0KiB time=00:00:00.87 bitrate=   0.4kbits/s speed=0.0314x elapsed=0:00:27.86    \nframe=   24 fps=0.8 q=36.1 size=       0KiB time=00:00:00.91 bitrate=   0.4kbits/s speed=0.0323x elapsed=0:00:28.38    \nframe=   24 fps=0.8 q=36.1 size=       0KiB time=00:00:00.91 bitrate=   0.4kbits/s speed=0.0317x elapsed=0:00:28.89    \nframe=   24 fps=0.8 q=36.1 size=       0KiB time=00:00:00.91 bitrate=   0.4kbits/s speed=0.0312x elapsed=0:00:29.40    \nframe=   25 fps=0.8 q=39.1 size=     256KiB time=00:00:00.95 bitrate=2188.7kbits/s speed=0.032x elapsed=0:00:29.93    \nframe=   25 fps=0.8 q=39.1 size=     256KiB time=00:00:00.95 bitrate=2188.7kbits/s speed=0.0315x elapsed=0:00:30.45    \nframe=   25 fps=0.8 q=39.1 size=     256KiB time=00:00:00.95 bitrate=2188.7kbits/s speed=0.031x elapsed=0:00:30.95    \nframe=   25 fps=0.8 q=39.1 size=     256KiB time=00:00:00.95 bitrate=2188.7kbits/s speed=0.0304x elapsed=0:00:31.47    \nframe=   25 fps=0.8 q=39.1 size=     256KiB time=00:00:00.95 bitrate=2188.7kbits/s speed=0.03x elapsed=0:00:31.99    \nframe=   25 fps=0.8 q=39.1 size=     256KiB time=00:00:00.95 bitrate=2188.7kbits/s speed=0.0295x elapsed=0:00:32.50    \nframe=   25 fps=0.8 q=39.1 size=     256KiB time=00:00:00.95 bitrate=2188.7kbits/s speed=0.029x elapsed=0:00:33.02    \nframe=   25 fps=0.7 q=39.1 size=     256KiB time=00:00:00.95 bitrate=2188.7kbits/s speed=0.0286x elapsed=0:00:33.53    \nframe=   26 fps=0.8 q=39.3 size=     256KiB time=00:00:01.00 bitrate=2097.5kbits/s speed=0.0294x elapsed=0:00:34.05    \nframe=   26 fps=0.8 q=39.3 size=     256KiB time=00:00:01.00 bitrate=2097.5kbits/s speed=0.0289x elapsed=0:00:34.56    \nframe=   26 fps=0.7 q=39.3 size=     256KiB time=00:00:01.00 bitrate=2097.5kbits/s speed=0.0285x elapsed=0:00:35.08    \nframe=   26 fps=0.7 q=39.3 size=     256KiB time=00:00:01.00 bitrate=2097.5kbits/s speed=0.0281x elapsed=0:00:35.59    \nframe=   27 fps=0.7 q=39.2 size=     256KiB time=00:00:01.04 bitrate=2013.6kbits/s speed=0.0288x elapsed=0:00:36.11    \nframe=   27 fps=0.7 q=39.2 size=     256KiB time=00:00:01.04 bitrate=2013.6kbits/s speed=0.0284x elapsed=0:00:36.63    \nframe=   27 fps=0.7 q=39.2 size=     256KiB time=00:00:01.04 bitrate=2013.6kbits/s speed=0.028x elapsed=0:00:37.14    \nframe=   28 fps=0.7 q=32.5 size=     256KiB time=00:00:01.08 bitrate=1936.2kbits/s speed=0.0288x elapsed=0:00:37.65    \nframe=   28 fps=0.7 q=32.5 size=     256KiB time=00:00:01.08 bitrate=1936.2kbits/s speed=0.0284x elapsed=0:00:38.17    \nframe=   29 fps=0.7 q=36.5 size=     256KiB time=00:00:01.12 bitrate=1864.4kbits/s speed=0.0291x elapsed=0:00:38.69    \nframe=   29 fps=0.7 q=36.5 size=     256KiB time=00:00:01.12 bitrate=1864.4kbits/s speed=0.0287x elapsed=0:00:39.20    \nframe=   29 fps=0.7 q=36.5 size=     256KiB time=00:00:01.12 bitrate=1864.4kbits/s speed=0.0283x elapsed=0:00:39.73    \nframe=   29 fps=0.7 q=36.5 size=     256KiB time=00:00:01.12 bitrate=1864.4kbits/s speed=0.0279x elapsed=0:00:40.26    \nframe=   29 fps=0.7 q=36.5 size=     256KiB time=00:00:01.12 bitrate=1864.4kbits/s speed=0.0276x elapsed=0:00:40.76    \nframe=   29 fps=0.7 q=36.5 size=     256KiB time=00:00:01.12 bitrate=1864.4kbits/s speed=0.0272x elapsed=0:00:41.29    \nframe=   29 fps=0.7 q=36.5 size=     256KiB time=00:00:01.12 bitrate=1864.4kbits/s speed=0.0269x elapsed=0:00:41.82    \nframe=   30 fps=0.7 q=39.4 size=     256KiB time=00:00:01.16 bitrate=1797.9kbits/s speed=0.0276x elapsed=0:00:42.33    \nframe=   30 fps=0.7 q=39.4 size=     256KiB time=00:00:01.16 bitrate=1797.9kbits/s speed=0.0272x elapsed=0:00:42.85    \nframe=   30 fps=0.7 q=39.4 size=     256KiB time=00:00:01.16 bitrate=1797.9kbits/s speed=0.0269x elapsed=0:00:43.36    \nframe=   30 fps=0.7 q=39.4 size=     256KiB time=00:00:01.16 bitrate=1797.9kbits/s speed=0.0266x elapsed=0:00:43.88    \nframe=   30 fps=0.7 q=39.4 size=     256KiB time=00:00:01.16 bitrate=1797.9kbits/s speed=0.0263x elapsed=0:00:44.39    \nframe=   30 fps=0.7 q=39.4 size=     256KiB time=00:00:01.16 bitrate=1797.9kbits/s speed=0.026x elapsed=0:00:44.93    \nframe=   30 fps=0.7 q=39.4 size=     256KiB time=00:00:01.16 bitrate=1797.9kbits/s speed=0.0257x elapsed=0:00:45.44    \nframe=   30 fps=0.7 q=39.4 size=     256KiB time=00:00:01.16 bitrate=1797.9kbits/s speed=0.0254x elapsed=0:00:45.96    \nframe=   30 fps=0.6 q=39.4 size=     256KiB time=00:00:01.16 bitrate=1797.9kbits/s speed=0.0251x elapsed=0:00:46.48    \nframe=   30 fps=0.6 q=39.4 size=     256KiB time=00:00:01.16 bitrate=1797.9kbits/s speed=0.0248x elapsed=0:00:47.00    \nframe=   30 fps=0.6 q=39.4 size=     256KiB time=00:00:01.16 bitrate=1797.9kbits/s speed=0.0245x elapsed=0:00:47.52    \nframe=   30 fps=0.6 q=39.4 size=     256KiB time=00:00:01.16 bitrate=1797.9kbits/s speed=0.0243x elapsed=0:00:48.05    \nframe=   30 fps=0.6 q=39.4 size=     256KiB time=00:00:01.16 bitrate=1797.9kbits/s speed=0.024x elapsed=0:00:48.58    \nframe=   30 fps=0.6 q=39.4 size=     256KiB time=00:00:01.16 bitrate=1797.9kbits/s speed=0.0238x elapsed=0:00:49.10    \nframe=   30 fps=0.6 q=39.4 size=     256KiB time=00:00:01.16 bitrate=1797.9kbits/s speed=0.0235x elapsed=0:00:49.63    \nframe=   30 fps=0.6 q=39.4 size=     256KiB time=00:00:01.16 bitrate=1797.9kbits/s speed=0.0233x elapsed=0:00:50.15    \nframe=   30 fps=0.6 q=39.4 size=     256KiB time=00:00:01.16 bitrate=1797.9kbits/s speed=0.023x elapsed=0:00:50.68    \nframe=   30 fps=0.6 q=39.4 size=     256KiB time=00:00:01.16 bitrate=1797.9kbits/s speed=0.0228x elapsed=0:00:51.21    \nframe=   30 fps=0.6 q=39.4 size=     256KiB time=00:00:01.16 bitrate=1797.9kbits/s speed=0.0225x elapsed=0:00:51.73    \nframe=   30 fps=0.6 q=39.4 size=     256KiB time=00:00:01.16 bitrate=1797.9kbits/s speed=0.0223x elapsed=0:00:52.26    \nframe=   30 fps=0.6 q=39.4 size=     256KiB time=00:00:01.16 bitrate=1797.9kbits/s speed=0.0221x elapsed=0:00:52.77    \nframe=   30 fps=0.6 q=39.4 size=     256KiB time=00:00:01.16 bitrate=1797.9kbits/s speed=0.0219x elapsed=0:00:53.29    \nframe=   31 fps=0.6 q=39.1 size=     256KiB time=00:00:01.20 bitrate=1735.9kbits/s speed=0.0225x elapsed=0:00:53.81    \nframe=   31 fps=0.6 q=39.1 size=     256KiB time=00:00:01.20 bitrate=1735.9kbits/s speed=0.0222x elapsed=0:00:54.33    \nframe=   31 fps=0.6 q=39.1 size=     256KiB time=00:00:01.20 bitrate=1735.9kbits/s speed=0.022x elapsed=0:00:54.84    \nframe=   31 fps=0.6 q=39.1 size=     256KiB time=00:00:01.20 bitrate=1735.9kbits/s speed=0.0218x elapsed=0:00:55.36    \nframe=   31 fps=0.6 q=39.1 size=     256KiB time=00:00:01.20 bitrate=1735.9kbits/s speed=0.0216x elapsed=0:00:55.87    \nframe=   32 fps=0.6 q=32.4 size=     256KiB time=00:00:01.25 bitrate=1678.0kbits/s speed=0.0222x elapsed=0:00:56.40    \nframe=   32 fps=0.6 q=32.4 size=     256KiB time=00:00:01.25 bitrate=1678.0kbits/s speed=0.022x elapsed=0:00:56.91    \nframe=   32 fps=0.6 q=32.4 size=     256KiB time=00:00:01.25 bitrate=1678.0kbits/s speed=0.0218x elapsed=0:00:57.42    \nframe=   33 fps=0.6 q=36.4 size=     256KiB time=00:00:01.29 bitrate=1623.9kbits/s speed=0.0223x elapsed=0:00:57.94    \nframe=   33 fps=0.6 q=36.4 size=     256KiB time=00:00:01.29 bitrate=1623.9kbits/s speed=0.0221x elapsed=0:00:58.45    \nframe=   33 fps=0.6 q=36.4 size=     256KiB time=00:00:01.29 bitrate=1623.9kbits/s speed=0.0219x elapsed=0:00:58.97    \nframe=   33 fps=0.6 q=36.4 size=     256KiB time=00:00:01.29 bitrate=1623.9kbits/s speed=0.0217x elapsed=0:00:59.48    \nframe=   33 fps=0.5 q=36.4 size=     256KiB time=00:00:01.29 bitrate=1623.9kbits/s speed=0.0215x elapsed=0:01:00.00    \nframe=   33 fps=0.5 q=36.4 size=     256KiB time=00:00:01.29 bitrate=1623.9kbits/s speed=0.0213x elapsed=0:01:00.51    \nframe=   33 fps=0.5 q=36.4 size=     256KiB time=00:00:01.29 bitrate=1623.9kbits/s speed=0.0212x elapsed=0:01:01.04    \nframe=   33 fps=0.5 q=36.4 size=     256KiB time=00:00:01.29 bitrate=1623.9kbits/s speed=0.021x elapsed=0:01:01.55    \nframe=   33 fps=0.5 q=36.4 size=     256KiB time=00:00:01.29 bitrate=1623.9kbits/s speed=0.0208x elapsed=0:01:02.07    \nframe=   33 fps=0.5 q=36.4 size=     256KiB time=00:00:01.29 bitrate=1623.9kbits/s speed=0.0206x elapsed=0:01:02.59    \nframe=   34 fps=0.5 q=39.0 size=     256KiB time=00:00:01.33 bitrate=1573.1kbits/s speed=0.0211x elapsed=0:01:03.10    \nframe=   34 fps=0.5 q=39.0 size=     256KiB time=00:00:01.33 bitrate=1573.1kbits/s speed=0.021x elapsed=0:01:03.61    \nframe=   34 fps=0.5 q=39.0 size=     256KiB time=00:00:01.33 bitrate=1573.1kbits/s speed=0.0208x elapsed=0:01:04.12    \nframe=   35 fps=0.5 q=38.6 size=     256KiB time=00:00:01.37 bitrate=1525.5kbits/s speed=0.0213x elapsed=0:01:04.65    \nframe=   35 fps=0.5 q=38.6 size=     256KiB time=00:00:01.37 bitrate=1525.5kbits/s speed=0.0211x elapsed=0:01:05.17    \nframe=   35 fps=0.5 q=38.6 size=     256KiB time=00:00:01.37 bitrate=1525.5kbits/s speed=0.0209x elapsed=0:01:05.68    \nframe=   35 fps=0.5 q=38.6 size=     256KiB time=00:00:01.37 bitrate=1525.5kbits/s speed=0.0208x elapsed=0:01:06.21    \nframe=   36 fps=0.5 q=32.4 size=     256KiB time=00:00:01.41 bitrate=1480.6kbits/s speed=0.0212x elapsed=0:01:06.72    \nframe=   36 fps=0.5 q=32.4 size=     256KiB time=00:00:01.41 bitrate=1480.6kbits/s speed=0.0211x elapsed=0:01:07.24    \nframe=   37 fps=0.5 q=36.6 size=     256KiB time=00:00:01.45 bitrate=1438.3kbits/s speed=0.0215x elapsed=0:01:07.75    \nframe=   37 fps=0.5 q=36.6 size=     256KiB time=00:00:01.45 bitrate=1438.3kbits/s speed=0.0214x elapsed=0:01:08.27    \nframe=   37 fps=0.5 q=36.6 size=     256KiB time=00:00:01.45 bitrate=1438.3kbits/s speed=0.0212x elapsed=0:01:08.78    \nframe=   37 fps=0.5 q=36.6 size=     256KiB time=00:00:01.45 bitrate=1438.3kbits/s speed=0.021x elapsed=0:01:09.30    \nframe=   37 fps=0.5 q=36.6 size=     256KiB time=00:00:01.45 bitrate=1438.3kbits/s speed=0.0209x elapsed=0:01:09.81    \nframe=   37 fps=0.5 q=36.6 size=     256KiB time=00:00:01.45 bitrate=1438.3kbits/s speed=0.0207x elapsed=0:01:10.33    \nframe=   37 fps=0.5 q=36.6 size=     256KiB time=00:00:01.45 bitrate=1438.3kbits/s speed=0.0206x elapsed=0:01:10.85    \nframe=   38 fps=0.5 q=39.0 size=     256KiB time=00:00:01.50 bitrate=1398.3kbits/s speed=0.021x elapsed=0:01:11.36    \nframe=   38 fps=0.5 q=39.0 size=     256KiB time=00:00:01.50 bitrate=1398.3kbits/s speed=0.0209x elapsed=0:01:11.87    \nframe=   38 fps=0.5 q=39.0 size=     256KiB time=00:00:01.50 bitrate=1398.3kbits/s speed=0.0207x elapsed=0:01:12.39    \nframe=   38 fps=0.5 q=39.0 size=     256KiB time=00:00:01.50 bitrate=1398.3kbits/s speed=0.0206x elapsed=0:01:12.91    \nframe=   38 fps=0.5 q=39.0 size=     256KiB time=00:00:01.50 bitrate=1398.3kbits/s speed=0.0204x elapsed=0:01:13.42    \nframe=   38 fps=0.5 q=39.0 size=     256KiB time=00:00:01.50 bitrate=1398.3kbits/s speed=0.0203x elapsed=0:01:13.94    \nframe=   39 fps=0.5 q=39.1 size=     256KiB time=00:00:01.54 bitrate=1360.5kbits/s speed=0.0207x elapsed=0:01:14.46    \nframe=   39 fps=0.5 q=39.1 size=     256KiB time=00:00:01.54 bitrate=1360.5kbits/s speed=0.0206x elapsed=0:01:14.97    \nframe=   39 fps=0.5 q=39.1 size=     256KiB time=00:00:01.54 bitrate=1360.5kbits/s speed=0.0204x elapsed=0:01:15.49    \nframe=   40 fps=0.5 q=32.4 size=     256KiB time=00:00:01.58 bitrate=1324.7kbits/s speed=0.0208x elapsed=0:01:16.00    \nframe=   40 fps=0.5 q=32.4 size=     256KiB time=00:00:01.58 bitrate=1324.7kbits/s speed=0.0207x elapsed=0:01:16.51    \nframe=   41 fps=0.5 q=36.4 size=     256KiB time=00:00:01.62 bitrate=1290.8kbits/s speed=0.0211x elapsed=0:01:17.03    \nframe=   41 fps=0.5 q=36.4 size=     256KiB time=00:00:01.62 bitrate=1290.8kbits/s speed=0.021x elapsed=0:01:17.55    \nframe=   41 fps=0.5 q=36.4 size=     256KiB time=00:00:01.62 bitrate=1290.8kbits/s speed=0.0208x elapsed=0:01:18.06    \nframe=   41 fps=0.5 q=36.4 size=     256KiB time=00:00:01.62 bitrate=1290.8kbits/s speed=0.0207x elapsed=0:01:18.58    \nframe=   41 fps=0.5 q=36.4 size=     256KiB time=00:00:01.62 bitrate=1290.8kbits/s speed=0.0205x elapsed=0:01:19.09    \nframe=   41 fps=0.5 q=36.4 size=     256KiB time=00:00:01.62 bitrate=1290.8kbits/s speed=0.0204x elapsed=0:01:19.61    \nframe=   41 fps=0.5 q=36.4 size=     256KiB time=00:00:01.62 bitrate=1290.8kbits/s speed=0.0203x elapsed=0:01:20.13    \nframe=   41 fps=0.5 q=36.4 size=     256KiB time=00:00:01.62 bitrate=1290.8kbits/s speed=0.0202x elapsed=0:01:20.64    \nframe=   42 fps=0.5 q=39.4 size=     256KiB time=00:00:01.66 bitrate=1258.5kbits/s speed=0.0205x elapsed=0:01:21.16    \nframe=   42 fps=0.5 q=39.4 size=     256KiB time=00:00:01.66 bitrate=1258.5kbits/s speed=0.0204x elapsed=0:01:21.67    \nframe=   42 fps=0.5 q=39.4 size=     256KiB time=00:00:01.66 bitrate=1258.5kbits/s speed=0.0203x elapsed=0:01:22.19    \nframe=   42 fps=0.5 q=39.4 size=     256KiB time=00:00:01.66 bitrate=1258.5kbits/s speed=0.0202x elapsed=0:01:22.70    \nframe=   42 fps=0.5 q=39.4 size=     256KiB time=00:00:01.66 bitrate=1258.5kbits/s speed=0.02x elapsed=0:01:23.22    \nframe=   43 fps=0.5 q=38.8 size=     256KiB time=00:00:01.70 bitrate=1227.8kbits/s speed=0.0204x elapsed=0:01:23.74    \nframe=   43 fps=0.5 q=38.8 size=     256KiB time=00:00:01.70 bitrate=1227.8kbits/s speed=0.0203x elapsed=0:01:24.27    \nframe=   43 fps=0.5 q=38.8 size=     256KiB time=00:00:01.70 bitrate=1227.8kbits/s speed=0.0201x elapsed=0:01:24.82    \nframe=   43 fps=0.5 q=38.8 size=     256KiB time=00:00:01.70 bitrate=1227.8kbits/s speed=0.02x elapsed=0:01:25.37    \nframe=   43 fps=0.5 q=38.8 size=     256KiB time=00:00:01.70 bitrate=1227.8kbits/s speed=0.0199x elapsed=0:01:25.89    \nframe=   44 fps=0.5 q=32.4 size=     256KiB time=00:00:01.75 bitrate=1198.6kbits/s speed=0.0202x elapsed=0:01:26.43    \nframe=   44 fps=0.5 q=32.4 size=     256KiB time=00:00:01.75 bitrate=1198.6kbits/s speed=0.0201x elapsed=0:01:26.99    \nframe=   45 fps=0.5 q=36.6 size=     256KiB time=00:00:01.79 bitrate=1170.7kbits/s speed=0.0205x elapsed=0:01:27.56    \nframe=   45 fps=0.5 q=36.6 size=     256KiB time=00:00:01.79 bitrate=1170.7kbits/s speed=0.0203x elapsed=0:01:28.10    \nframe=   45 fps=0.5 q=36.6 size=     256KiB time=00:00:01.79 bitrate=1170.7kbits/s speed=0.0202x elapsed=0:01:28.61    \nframe=   45 fps=0.5 q=36.6 size=     256KiB time=00:00:01.79 bitrate=1170.7kbits/s speed=0.0201x elapsed=0:01:29.14    \nframe=   45 fps=0.5 q=36.6 size=     256KiB time=00:00:01.79 bitrate=1170.7kbits/s speed=0.02x elapsed=0:01:29.66    \nframe=   45 fps=0.5 q=36.6 size=     256KiB time=00:00:01.79 bitrate=1170.7kbits/s speed=0.0199x elapsed=0:01:30.20    \nframe=   46 fps=0.5 q=39.2 size=     256KiB time=00:00:01.83 bitrate=1144.1kbits/s speed=0.0202x elapsed=0:01:30.72    \nframe=   46 fps=0.5 q=39.2 size=     256KiB time=00:00:01.83 bitrate=1144.1kbits/s speed=0.0201x elapsed=0:01:31.25    \nframe=   46 fps=0.5 q=39.2 size=     256KiB time=00:00:01.83 bitrate=1144.1kbits/s speed=0.02x elapsed=0:01:31.79    \nframe=   46 fps=0.5 q=39.2 size=     256KiB time=00:00:01.83 bitrate=1144.1kbits/s speed=0.0199x elapsed=0:01:32.30    \nframe=   47 fps=0.5 q=39.2 size=     256KiB time=00:00:01.87 bitrate=1118.7kbits/s speed=0.0202x elapsed=0:01:32.86    \nframe=   48 fps=0.5 q=32.7 size=     256KiB time=00:00:01.91 bitrate=1094.3kbits/s speed=0.0205x elapsed=0:01:33.43    \nframe=   48 fps=0.5 q=32.7 size=     256KiB time=00:00:01.91 bitrate=1094.3kbits/s speed=0.0204x elapsed=0:01:33.97    \nframe=   48 fps=0.5 q=32.7 size=     256KiB time=00:00:01.91 bitrate=1094.3kbits/s speed=0.0203x elapsed=0:01:34.49    \nframe=   48 fps=0.5 q=32.7 size=     256KiB time=00:00:01.91 bitrate=1094.3kbits/s speed=0.0202x elapsed=0:01:35.05    \nframe=   49 fps=0.5 q=37.9 size=     256KiB time=00:00:01.95 bitrate=1071.1kbits/s speed=0.0205x elapsed=0:01:35.59    \nframe=   49 fps=0.5 q=37.9 size=     256KiB time=00:00:01.95 bitrate=1071.1kbits/s speed=0.0204x elapsed=0:01:36.14    \nframe=   51 fps=0.5 q=39.5 size=     256KiB time=00:00:02.04 bitrate=1027.3kbits/s speed=0.0211x elapsed=0:01:36.67    \nframe=   51 fps=0.5 q=39.5 size=     256KiB time=00:00:02.04 bitrate=1027.3kbits/s speed=0.021x elapsed=0:01:37.24    \nframe=   51 fps=0.5 q=39.5 size=     256KiB time=00:00:02.04 bitrate=1027.3kbits/s speed=0.0209x elapsed=0:01:37.80    \nframe=   51 fps=0.5 q=39.5 size=     256KiB time=00:00:02.04 bitrate=1027.3kbits/s speed=0.0208x elapsed=0:01:38.36    \nframe=   51 fps=0.5 q=39.5 size=     256KiB time=00:00:02.04 bitrate=1027.3kbits/s speed=0.0206x elapsed=0:01:38.88    \nframe=   51 fps=0.5 q=39.5 size=     256KiB time=00:00:02.04 bitrate=1027.3kbits/s speed=0.0205x elapsed=0:01:39.40    \nframe=   51 fps=0.5 q=39.5 size=     256KiB time=00:00:02.04 bitrate=1027.3kbits/s speed=0.0204x elapsed=0:01:39.91    \nframe=   51 fps=0.5 q=39.5 size=     256KiB time=00:00:02.04 bitrate=1027.3kbits/s speed=0.0203x elapsed=0:01:40.42    \nframe=   52 fps=0.5 q=39.2 size=     256KiB time=00:00:02.08 bitrate=1006.8kbits/s speed=0.0206x elapsed=0:01:40.94    \nframe=   53 fps=0.5 q=32.7 size=     256KiB time=00:00:02.12 bitrate= 987.1kbits/s speed=0.0209x elapsed=0:01:41.46    \nframe=   53 fps=0.5 q=32.7 size=     256KiB time=00:00:02.12 bitrate= 987.1kbits/s speed=0.0208x elapsed=0:01:41.98    \nframe=   53 fps=0.5 q=32.7 size=     256KiB time=00:00:02.12 bitrate= 987.1kbits/s speed=0.0207x elapsed=0:01:42.50    \nframe=   54 fps=0.5 q=36.7 size=     512KiB time=00:00:02.16 bitrate=1936.0kbits/s speed=0.021x elapsed=0:01:43.03    \nframe=   54 fps=0.5 q=36.7 size=     512KiB time=00:00:02.16 bitrate=1936.0kbits/s speed=0.0209x elapsed=0:01:43.53    \nframe=   54 fps=0.5 q=36.7 size=     512KiB time=00:00:02.16 bitrate=1936.0kbits/s speed=0.0208x elapsed=0:01:44.09    \nframe=   54 fps=0.5 q=36.7 size=     512KiB time=00:00:02.16 bitrate=1936.0kbits/s speed=0.0207x elapsed=0:01:44.64    \nframe=   55 fps=0.5 q=39.1 size=     512KiB time=00:00:02.20 bitrate=1899.5kbits/s speed=0.021x elapsed=0:01:45.20    \nframe=   55 fps=0.5 q=39.1 size=     512KiB time=00:00:02.20 bitrate=1899.5kbits/s speed=0.0209x elapsed=0:01:45.77    \nframe=   55 fps=0.5 q=39.1 size=     512KiB time=00:00:02.20 bitrate=1899.5kbits/s speed=0.0208x elapsed=0:01:46.28    \nframe=   55 fps=0.5 q=39.1 size=     512KiB time=00:00:02.20 bitrate=1899.5kbits/s speed=0.0207x elapsed=0:01:46.80    \nframe=   55 fps=0.5 q=39.1 size=     512KiB time=00:00:02.20 bitrate=1899.5kbits/s speed=0.0206x elapsed=0:01:47.34    \nframe=   55 fps=0.5 q=39.1 size=     512KiB time=00:00:02.20 bitrate=1899.5kbits/s speed=0.0205x elapsed=0:01:47.86    \nframe=   56 fps=0.5 q=39.1 size=     512KiB time=00:00:02.25 bitrate=1864.3kbits/s speed=0.0208x elapsed=0:01:48.38    \nframe=   56 fps=0.5 q=39.1 size=     512KiB time=00:00:02.25 bitrate=1864.3kbits/s speed=0.0207x elapsed=0:01:48.92    \nframe=   57 fps=0.5 q=32.4 size=     512KiB time=00:00:02.29 bitrate=1830.4kbits/s speed=0.0209x elapsed=0:01:49.45    \nframe=   57 fps=0.5 q=32.4 size=     512KiB time=00:00:02.29 bitrate=1830.4kbits/s speed=0.0208x elapsed=0:01:49.98    \nframe=   57 fps=0.5 q=32.4 size=     512KiB time=00:00:02.29 bitrate=1830.4kbits/s speed=0.0207x elapsed=0:01:50.51    \nframe=   58 fps=0.5 q=36.7 size=     512KiB time=00:00:02.33 bitrate=1797.7kbits/s speed=0.021x elapsed=0:01:51.06    \nframe=   58 fps=0.5 q=36.7 size=     512KiB time=00:00:02.33 bitrate=1797.7kbits/s speed=0.0209x elapsed=0:01:51.62    \nframe=   58 fps=0.5 q=36.7 size=     512KiB time=00:00:02.33 bitrate=1797.7kbits/s speed=0.0208x elapsed=0:01:52.14    \nframe=   58 fps=0.5 q=36.7 size=     512KiB time=00:00:02.33 bitrate=1797.7kbits/s speed=0.0207x elapsed=0:01:52.65    \nframe=   58 fps=0.5 q=36.7 size=     512KiB time=00:00:02.33 bitrate=1797.7kbits/s speed=0.0206x elapsed=0:01:53.18    \nframe=   58 fps=0.5 q=36.7 size=     512KiB time=00:00:02.33 bitrate=1797.7kbits/s speed=0.0205x elapsed=0:01:53.73    \nframe=   58 fps=0.5 q=36.7 size=     512KiB time=00:00:02.33 bitrate=1797.7kbits/s speed=0.0204x elapsed=0:01:54.23    \nframe=   58 fps=0.5 q=36.7 size=     512KiB time=00:00:02.33 bitrate=1797.7kbits/s speed=0.0203x elapsed=0:01:54.76    \nframe=   59 fps=0.5 q=39.1 size=     512KiB time=00:00:02.37 bitrate=1766.2kbits/s speed=0.0206x elapsed=0:01:55.29    \nframe=   60 fps=0.5 q=39.1 size=     512KiB time=00:00:02.41 bitrate=1735.7kbits/s speed=0.0209x elapsed=0:01:55.89    \nframe=   61 fps=0.5 q=32.6 size=     512KiB time=00:00:02.41 bitrate=1735.7kbits/s speed=0.0208x elapsed=0:01:56.43    \nframe=   61 fps=0.5 q=32.6 size=     512KiB time=00:00:02.45 bitrate=1706.3kbits/s speed=0.021x elapsed=0:01:57.01    \nframe=   62 fps=0.5 q=36.5 size=     512KiB time=00:00:02.50 bitrate=1677.9kbits/s speed=0.0213x elapsed=0:01:57.57    \nframe=   63 fps=0.5 q=38.8 size=     512KiB time=00:00:02.54 bitrate=1650.4kbits/s speed=0.0215x elapsed=0:01:58.13    \nframe=   63 fps=0.5 q=38.8 size=     512KiB time=00:00:02.54 bitrate=1650.4kbits/s speed=0.0214x elapsed=0:01:58.67    \nframe=   65 fps=0.5 q=32.5 size=     512KiB time=00:00:02.62 bitrate=1598.0kbits/s speed=0.022x elapsed=0:01:59.22    \nframe=   65 fps=0.5 q=32.5 size=     512KiB time=00:00:02.62 bitrate=1598.0kbits/s speed=0.0219x elapsed=0:01:59.75    \nframe=   65 fps=0.5 q=32.5 size=     512KiB time=00:00:02.62 bitrate=1598.0kbits/s speed=0.0218x elapsed=0:02:00.28    \nframe=   66 fps=0.5 q=36.7 size=     512KiB time=00:00:02.66 bitrate=1573.0kbits/s speed=0.0221x elapsed=0:02:00.83    \nframe=   66 fps=0.5 q=36.7 size=     512KiB time=00:00:02.66 bitrate=1573.0kbits/s speed=0.022x elapsed=0:02:01.41    \nframe=   66 fps=0.5 q=36.7 size=     512KiB time=00:00:02.66 bitrate=1573.0kbits/s speed=0.0219x elapsed=0:02:01.96    \nframe=   67 fps=0.5 q=39.0 size=     512KiB time=00:00:02.70 bitrate=1548.8kbits/s speed=0.0221x elapsed=0:02:02.49    \nframe=   68 fps=0.6 q=39.3 size=     512KiB time=00:00:02.75 bitrate=1525.3kbits/s speed=0.0224x elapsed=0:02:03.01    \nframe=   70 fps=0.6 q=37.2 size=     512KiB time=00:00:02.83 bitrate=1480.5kbits/s speed=0.0229x elapsed=0:02:03.52    \nframe=   71 fps=0.6 q=38.3 size=     512KiB time=00:00:02.87 bitrate=1459.0kbits/s speed=0.0232x elapsed=0:02:04.03    \nframe=   72 fps=0.6 q=39.0 size=     512KiB time=00:00:02.91 bitrate=1438.2kbits/s speed=0.0234x elapsed=0:02:04.55    \nframe=   72 fps=0.6 q=39.0 size=     512KiB time=00:00:02.91 bitrate=1438.2kbits/s speed=0.0233x elapsed=0:02:05.06    \nframe=   73 fps=0.6 q=39.2 size=     512KiB time=00:00:02.95 bitrate=1417.9kbits/s speed=0.0236x elapsed=0:02:05.58    \nframe=   75 fps=0.6 q=33.6 size=     512KiB time=00:00:03.04 bitrate=1379.1kbits/s speed=0.0241x elapsed=0:02:06.13    \nframe=   76 fps=0.6 q=39.2 size=     512KiB time=00:00:03.08 bitrate=1360.4kbits/s speed=0.0243x elapsed=0:02:06.64    \nframe=   77 fps=0.6 q=38.8 size=     768KiB time=00:00:03.12 bitrate=2013.4kbits/s speed=0.0246x elapsed=0:02:07.15    \nframe=   78 fps=0.6 q=38.7 size=     768KiB time=00:00:03.16 bitrate=1986.9kbits/s speed=0.0248x elapsed=0:02:07.69    \nframe=   80 fps=0.6 q=36.9 size=     768KiB time=00:00:03.25 bitrate=1935.9kbits/s speed=0.0253x elapsed=0:02:08.22    \nframe=   80 fps=0.6 q=36.9 size=     768KiB time=00:00:03.25 bitrate=1935.9kbits/s speed=0.0252x elapsed=0:02:08.74    \nframe=   82 fps=0.6 q=38.7 size=     768KiB time=00:00:03.33 bitrate=1887.5kbits/s speed=0.0258x elapsed=0:02:09.25    \nframe=   83 fps=0.6 q=32.2 size=     768KiB time=00:00:03.37 bitrate=1864.2kbits/s speed=0.026x elapsed=0:02:09.76    \nframe=   84 fps=0.6 q=36.5 size=     768KiB time=00:00:03.41 bitrate=1841.5kbits/s speed=0.0262x elapsed=0:02:10.29    \nframe=   86 fps=0.7 q=39.4 size=     768KiB time=00:00:03.50 bitrate=1797.7kbits/s speed=0.0268x elapsed=0:02:10.81    \nframe=   87 fps=0.7 q=31.3 size=     768KiB time=00:00:03.54 bitrate=1776.5kbits/s speed=0.027x elapsed=0:02:11.34    \nframe=   88 fps=0.7 q=35.4 size=     768KiB time=00:00:03.58 bitrate=1755.9kbits/s speed=0.0272x elapsed=0:02:11.86    \nframe=   89 fps=0.7 q=39.0 size=     768KiB time=00:00:03.62 bitrate=1735.7kbits/s speed=0.0274x elapsed=0:02:12.38    \nframe=   91 fps=0.7 q=39.1 size=     768KiB time=00:00:03.70 bitrate=1696.7kbits/s speed=0.0279x elapsed=0:02:12.91    \nframe=   92 fps=0.7 q=32.4 size=     768KiB time=00:00:03.75 bitrate=1677.8kbits/s speed=0.0281x elapsed=0:02:13.42    \nframe=   93 fps=0.7 q=36.4 size=     768KiB time=00:00:03.79 bitrate=1659.4kbits/s speed=0.0283x elapsed=0:02:13.93    \nframe=   94 fps=0.7 q=39.3 size=     768KiB time=00:00:03.83 bitrate=1641.3kbits/s speed=0.0285x elapsed=0:02:14.46    \nframe=   96 fps=0.7 q=31.5 size=     768KiB time=00:00:03.91 bitrate=1606.4kbits/s speed=0.029x elapsed=0:02:14.97    \nframe=   97 fps=0.7 q=36.8 size=     768KiB time=00:00:03.95 bitrate=1589.5kbits/s speed=0.0292x elapsed=0:02:15.49    \nframe=   99 fps=0.7 q=39.3 size=     768KiB time=00:00:04.04 bitrate=1556.7kbits/s speed=0.0297x elapsed=0:02:16.00    \nframe=   99 fps=0.7 q=39.3 size=     768KiB time=00:00:04.04 bitrate=1556.7kbits/s speed=0.0296x elapsed=0:02:16.52    \nframe=  101 fps=0.7 q=37.7 size=    1024KiB time=00:00:04.12 bitrate=2033.7kbits/s speed=0.0301x elapsed=0:02:17.03    \nframe=  103 fps=0.7 q=38.5 size=    1024KiB time=00:00:04.20 bitrate=1993.4kbits/s speed=0.0306x elapsed=0:02:17.57    \nframe=  104 fps=0.8 q=38.6 size=    1024KiB time=00:00:04.25 bitrate=1973.9kbits/s speed=0.0308x elapsed=0:02:18.08    \nframe=  104 fps=0.8 q=38.6 size=    1024KiB time=00:00:04.25 bitrate=1973.9kbits/s speed=0.0307x elapsed=0:02:18.60    \nframe=  106 fps=0.8 q=36.1 size=    1024KiB time=00:00:04.33 bitrate=1935.9kbits/s speed=0.0311x elapsed=0:02:19.12    \nframe=  107 fps=0.8 q=38.8 size=    1024KiB time=00:00:04.37 bitrate=1917.5kbits/s speed=0.0313x elapsed=0:02:19.63    \nframe=  109 fps=0.8 q=32.0 size=    1024KiB time=00:00:04.45 bitrate=1881.6kbits/s speed=0.0318x elapsed=0:02:20.15    \nframe=  110 fps=0.8 q=36.2 size=    1024KiB time=00:00:04.50 bitrate=1864.2kbits/s speed=0.032x elapsed=0:02:20.67    \nframe=  110 fps=0.8 q=36.2 size=    1024KiB time=00:00:04.50 bitrate=1864.2kbits/s speed=0.0319x elapsed=0:02:21.19    \nframe=  111 fps=0.8 q=38.7 size=    1024KiB time=00:00:04.54 bitrate=1847.1kbits/s speed=0.032x elapsed=0:02:21.71    \nframe=  113 fps=0.8 q=30.7 size=    1024KiB time=00:00:04.62 bitrate=1813.8kbits/s speed=0.0325x elapsed=0:02:22.23    \nframe=  114 fps=0.8 q=36.8 size=    1024KiB time=00:00:04.66 bitrate=1797.6kbits/s speed=0.0327x elapsed=0:02:22.76    \nframe=  115 fps=0.8 q=37.5 size=    1024KiB time=00:00:04.70 bitrate=1781.7kbits/s speed=0.0329x elapsed=0:02:23.27    \nframe=  116 fps=0.8 q=38.0 size=    1024KiB time=00:00:04.75 bitrate=1766.1kbits/s speed=0.033x elapsed=0:02:23.78    \nframe=  117 fps=0.8 q=38.1 size=    1024KiB time=00:00:04.79 bitrate=1750.7kbits/s speed=0.0332x elapsed=0:02:24.30    \nframe=  119 fps=0.8 q=32.4 size=    1024KiB time=00:00:04.87 bitrate=1720.8kbits/s speed=0.0337x elapsed=0:02:24.82    \nframe=  120 fps=0.8 q=38.1 size=    1024KiB time=00:00:04.91 bitrate=1706.2kbits/s speed=0.0338x elapsed=0:02:25.33    \nframe=  120 fps=0.8 q=38.1 size=    1024KiB time=00:00:04.91 bitrate=1706.2kbits/s speed=0.0337x elapsed=0:02:25.85    \nframe=  122 fps=0.8 q=38.1 size=    1024KiB time=00:00:05.00 bitrate=1677.8kbits/s speed=0.0342x elapsed=0:02:26.37    \nframe=  124 fps=0.8 q=35.5 size=    1024KiB time=00:00:05.08 bitrate=1650.3kbits/s speed=0.0346x elapsed=0:02:26.91    \nframe=  124 fps=0.8 q=35.5 size=    1024KiB time=00:00:05.08 bitrate=1650.3kbits/s speed=0.0345x elapsed=0:02:27.42    \nframe=  125 fps=0.8 q=38.7 size=    1024KiB time=00:00:05.12 bitrate=1636.9kbits/s speed=0.0346x elapsed=0:02:27.94    \nframe=  127 fps=0.9 q=31.9 size=    1024KiB time=00:00:05.20 bitrate=1610.7kbits/s speed=0.0351x elapsed=0:02:28.46    \nframe=  129 fps=0.9 q=37.6 size=    1280KiB time=00:00:05.29 bitrate=1981.6kbits/s speed=0.0355x elapsed=0:02:28.98    \nframe=  130 fps=0.9 q=36.9 size=    1280KiB time=00:00:05.33 bitrate=1966.1kbits/s speed=0.0357x elapsed=0:02:29.51    \nframe=  130 fps=0.9 q=36.9 size=    1280KiB time=00:00:05.33 bitrate=1966.1kbits/s speed=0.0355x elapsed=0:02:30.03    \nframe=  132 fps=0.9 q=30.4 size=    1280KiB time=00:00:05.41 bitrate=1935.9kbits/s speed=0.036x elapsed=0:02:30.53    \nframe=  134 fps=0.9 q=37.1 size=    1280KiB time=00:00:05.50 bitrate=1906.6kbits/s speed=0.0364x elapsed=0:02:31.04    \nframe=  135 fps=0.9 q=37.8 size=    1280KiB time=00:00:05.54 bitrate=1892.2kbits/s speed=0.0366x elapsed=0:02:31.57    \nframe=  136 fps=0.9 q=37.3 size=    1280KiB time=00:00:05.58 bitrate=1878.1kbits/s speed=0.0367x elapsed=0:02:32.08    \nframe=  138 fps=0.9 q=31.8 size=    1280KiB time=00:00:05.66 bitrate=1850.5kbits/s speed=0.0371x elapsed=0:02:32.59    \nframe=  139 fps=0.9 q=37.8 size=    1280KiB time=00:00:05.70 bitrate=1837.0kbits/s speed=0.0373x elapsed=0:02:33.12    \nframe=  140 fps=0.9 q=37.5 size=    1280KiB time=00:00:05.75 bitrate=1823.7kbits/s speed=0.0374x elapsed=0:02:33.63    \nframe=  141 fps=0.9 q=37.9 size=    1280KiB time=00:00:05.79 bitrate=1810.6kbits/s speed=0.0376x elapsed=0:02:34.15    \nframe=  142 fps=0.9 q=31.3 size=    1280KiB time=00:00:05.83 bitrate=1797.6kbits/s speed=0.0377x elapsed=0:02:34.67    \nframe=  144 fps=0.9 q=37.6 size=    1280KiB time=00:00:05.91 bitrate=1772.3kbits/s speed=0.0381x elapsed=0:02:35.17    \nframe=  145 fps=0.9 q=37.2 size=    1280KiB time=00:00:05.95 bitrate=1759.9kbits/s speed=0.0383x elapsed=0:02:35.69    \nframe=  147 fps=0.9 q=30.7 size=    1280KiB time=00:00:06.04 bitrate=1735.6kbits/s speed=0.0387x elapsed=0:02:36.21    \nframe=  148 fps=0.9 q=34.9 size=    1280KiB time=00:00:06.08 bitrate=1723.7kbits/s speed=0.0388x elapsed=0:02:36.73    \nframe=  149 fps=0.9 q=37.9 size=    1280KiB time=00:00:06.12 bitrate=1712.0kbits/s speed=0.039x elapsed=0:02:37.23    \nframe=  150 fps=1.0 q=37.8 size=    1280KiB time=00:00:06.16 bitrate=1700.5kbits/s speed=0.0391x elapsed=0:02:37.75    \nframe=  152 fps=1.0 q=34.6 size=    1280KiB time=00:00:06.25 bitrate=1677.8kbits/s speed=0.0395x elapsed=0:02:38.27    \nframe=  153 fps=1.0 q=37.8 size=    1536KiB time=00:00:06.29 bitrate=2000.0kbits/s speed=0.0396x elapsed=0:02:38.79    \nframe=  154 fps=1.0 q=37.6 size=    1536KiB time=00:00:06.33 bitrate=1986.8kbits/s speed=0.0398x elapsed=0:02:39.30    \nframe=  156 fps=1.0 q=31.2 size=    1536KiB time=00:00:06.41 bitrate=1961.0kbits/s speed=0.0401x elapsed=0:02:39.83    \nframe=  157 fps=1.0 q=35.0 size=    1536KiB time=00:00:06.45 bitrate=1948.4kbits/s speed=0.0403x elapsed=0:02:40.34    \nframe=  158 fps=1.0 q=37.3 size=    1536KiB time=00:00:06.50 bitrate=1935.9kbits/s speed=0.0404x elapsed=0:02:40.87    \nframe=  160 fps=1.0 q=31.2 size=    1536KiB time=00:00:06.58 bitrate=1911.4kbits/s speed=0.0408x elapsed=0:02:41.39    \nframe=  162 fps=1.0 q=37.4 size=    1536KiB time=00:00:06.66 bitrate=1887.5kbits/s speed=0.0412x elapsed=0:02:41.90    \nframe=  164 fps=1.0 q=31.3 size=    1536KiB time=00:00:06.75 bitrate=1864.2kbits/s speed=0.0416x elapsed=0:02:42.43    \nframe=  165 fps=1.0 q=34.8 size=    1536KiB time=00:00:06.79 bitrate=1852.8kbits/s speed=0.0417x elapsed=0:02:42.94    \nframe=  166 fps=1.0 q=37.3 size=    1536KiB time=00:00:06.83 bitrate=1841.5kbits/s speed=0.0418x elapsed=0:02:43.46    \nframe=  167 fps=1.0 q=36.8 size=    1536KiB time=00:00:06.87 bitrate=1830.3kbits/s speed=0.0419x elapsed=0:02:43.98    \nframe=  169 fps=1.0 q=35.4 size=    1536KiB time=00:00:06.95 bitrate=1808.4kbits/s speed=0.0423x elapsed=0:02:44.48    \nframe=  170 fps=1.0 q=36.3 size=    1536KiB time=00:00:07.00 bitrate=1797.6kbits/s speed=0.0424x elapsed=0:02:45.01    \nframe=  170 fps=1.0 q=36.3 size=    1536KiB time=00:00:07.00 bitrate=1797.6kbits/s speed=0.0423x elapsed=0:02:45.51    \nframe=  172 fps=1.0 q=36.7 size=    1536KiB time=00:00:07.08 bitrate=1776.5kbits/s speed=0.0427x elapsed=0:02:46.03    \nframe=  173 fps=1.0 q=30.7 size=    1536KiB time=00:00:07.12 bitrate=1766.1kbits/s speed=0.0428x elapsed=0:02:46.56    \nframe=  175 fps=1.0 q=36.8 size=    1536KiB time=00:00:07.20 bitrate=1745.7kbits/s speed=0.0431x elapsed=0:02:47.06    \nframe=  177 fps=1.1 q=37.1 size=    1536KiB time=00:00:07.29 bitrate=1725.7kbits/s speed=0.0435x elapsed=0:02:47.57    \nframe=  179 fps=1.1 q=35.0 size=    1792KiB time=00:00:07.37 bitrate=1990.6kbits/s speed=0.0439x elapsed=0:02:48.09    \nframe=  180 fps=1.1 q=38.2 size=    1792KiB time=00:00:07.41 bitrate=1979.4kbits/s speed=0.044x elapsed=0:02:48.61    \nframe=  182 fps=1.1 q=31.1 size=    1792KiB time=00:00:07.50 bitrate=1957.4kbits/s speed=0.0443x elapsed=0:02:49.13    \nframe=  183 fps=1.1 q=34.3 size=    1792KiB time=00:00:07.54 bitrate=1946.6kbits/s speed=0.0445x elapsed=0:02:49.65    \nframe=  185 fps=1.1 q=37.3 size=    1792KiB time=00:00:07.62 bitrate=1925.3kbits/s speed=0.0448x elapsed=0:02:50.17    \nframe=  186 fps=1.1 q=37.5 size=    1792KiB time=00:00:07.66 bitrate=1914.8kbits/s speed=0.0449x elapsed=0:02:50.69    \nframe=  187 fps=1.1 q=31.4 size=    1792KiB time=00:00:07.70 bitrate=1904.5kbits/s speed=0.045x elapsed=0:02:51.20    \nframe=  190 fps=1.1 q=31.3 size=    1792KiB time=00:00:07.83 bitrate=1874.1kbits/s speed=0.0456x elapsed=0:02:51.72    \nframe=  191 fps=1.1 q=35.8 size=    1792KiB time=00:00:07.87 bitrate=1864.2kbits/s speed=0.0457x elapsed=0:02:52.24    \nframe=  192 fps=1.1 q=37.3 size=    1792KiB time=00:00:07.91 bitrate=1854.4kbits/s speed=0.0458x elapsed=0:02:52.75    \nframe=  194 fps=1.1 q=31.1 size=    1792KiB time=00:00:08.00 bitrate=1835.1kbits/s speed=0.0462x elapsed=0:02:53.27    \nframe=  196 fps=1.1 q=37.3 size=    1792KiB time=00:00:08.08 bitrate=1816.1kbits/s speed=0.0465x elapsed=0:02:53.79    \nframe=  197 fps=1.1 q=37.9 size=    1792KiB time=00:00:08.12 bitrate=1806.8kbits/s speed=0.0466x elapsed=0:02:54.29    \nframe=  198 fps=1.1 q=38.5 size=    1792KiB time=00:00:08.16 bitrate=1797.6kbits/s speed=0.0467x elapsed=0:02:54.81    \nframe=  200 fps=1.1 q=33.3 size=    1792KiB time=00:00:08.25 bitrate=1779.4kbits/s speed=0.0471x elapsed=0:02:55.34    \nframe=  202 fps=1.1 q=38.9 size=    1792KiB time=00:00:08.33 bitrate=1761.6kbits/s speed=0.0474x elapsed=0:02:55.85    \nframe=  203 fps=1.2 q=38.8 size=    1792KiB time=00:00:08.37 bitrate=1752.9kbits/s speed=0.0475x elapsed=0:02:56.37    \nframe=  205 fps=1.2 q=36.4 size=    2048KiB time=00:00:08.45 bitrate=1983.6kbits/s speed=0.0478x elapsed=0:02:56.88    \nframe=  207 fps=1.2 q=38.9 size=    2048KiB time=00:00:08.54 bitrate=1964.2kbits/s speed=0.0482x elapsed=0:02:57.39    \nframe=  209 fps=1.2 q=35.7 size=    2048KiB time=00:00:08.62 bitrate=1945.2kbits/s speed=0.0485x elapsed=0:02:57.91    \nframe=  210 fps=1.2 q=38.7 size=    2048KiB time=00:00:08.66 bitrate=1935.9kbits/s speed=0.0486x elapsed=0:02:58.43    \nframe=  212 fps=1.2 q=30.8 size=    2048KiB time=00:00:08.75 bitrate=1917.4kbits/s speed=0.0489x elapsed=0:02:58.93    \nframe=  213 fps=1.2 q=35.7 size=    2048KiB time=00:00:08.79 bitrate=1908.3kbits/s speed=0.049x elapsed=0:02:59.46    \nframe=  215 fps=1.2 q=38.6 size=    2048KiB time=00:00:08.87 bitrate=1890.4kbits/s speed=0.0493x elapsed=0:02:59.97    \nframe=  216 fps=1.2 q=30.7 size=    2048KiB time=00:00:08.91 bitrate=1881.6kbits/s speed=0.0494x elapsed=0:03:00.49    \nframe=  218 fps=1.2 q=37.7 size=    2048KiB time=00:00:09.00 bitrate=1864.2kbits/s speed=0.0497x elapsed=0:03:01.01    \nframe=  219 fps=1.2 q=37.5 size=    2048KiB time=00:00:09.04 bitrate=1855.6kbits/s speed=0.0498x elapsed=0:03:01.52    \nframe=  221 fps=1.2 q=29.9 size=    2048KiB time=00:00:09.12 bitrate=1838.6kbits/s speed=0.0501x elapsed=0:03:02.03    \nframe=  223 fps=1.2 q=37.7 size=    2048KiB time=00:00:09.20 bitrate=1822.0kbits/s speed=0.0504x elapsed=0:03:02.54    \nframe=  224 fps=1.2 q=38.4 size=    2048KiB time=00:00:09.25 bitrate=1813.8kbits/s speed=0.0505x elapsed=0:03:03.06    \nframe=  226 fps=1.2 q=30.4 size=    2048KiB time=00:00:09.33 bitrate=1797.6kbits/s speed=0.0508x elapsed=0:03:03.58    \nframe=  228 fps=1.2 q=39.0 size=    2304KiB time=00:00:09.41 bitrate=2004.4kbits/s speed=0.0512x elapsed=0:03:04.09    \nframe=  230 fps=1.2 q=36.9 size=    2304KiB time=00:00:09.50 bitrate=1986.8kbits/s speed=0.0515x elapsed=0:03:04.61    \nframe=  232 fps=1.3 q=31.1 size=    2304KiB time=00:00:09.58 bitrate=1969.5kbits/s speed=0.0518x elapsed=0:03:05.14    \nframe=  234 fps=1.3 q=34.5 size=    2304KiB time=00:00:09.66 bitrate=1952.6kbits/s speed=0.0521x elapsed=0:03:05.66    \nframe=  236 fps=1.3 q=30.7 size=    2304KiB time=00:00:09.75 bitrate=1935.9kbits/s speed=0.0524x elapsed=0:03:06.18    \nframe=  237 fps=1.3 q=31.7 size=    2304KiB time=00:00:09.79 bitrate=1927.6kbits/s speed=0.0524x elapsed=0:03:06.68    \n[mp4 @ 000001eaf86ea280] Starting second pass: moving the moov atom to the beginning of the file\n[out#0/mp4 @ 000001eaf86ea180] video:2422KiB audio:0KiB subtitle:0KiB other streams:0KiB global headers:2KiB muxing overhead: 0.254732%\nframe=  240 fps=1.3 q=30.5 Lsize=    2428KiB time=00:00:09.91 bitrate=2006.0kbits/s speed=0.053x elapsed=0:03:07.02    \nx265 [info]: frame I:      1, Avg QP:32.80  kb/s: 14343.55\nx265 [info]: frame P:     54, Avg QP:31.85  kb/s: 6232.29 \nx265 [info]: frame B:    185, Avg QP:37.39  kb/s: 676.42  \nx265 [info]: Weighted P-Frames: Y:0.0% UV:0.0%\n\nencoded 240 frames in 186.94s (1.28 fps), 1983.43 kb/s, Avg QP:36.12\n",
  "seconds": 187.23441457748413,
  "probe_out": {}
}